# xmcd CD database file
#
# Track frame offsets:
#	150
#	22887
#	44970
#
# Disc length: 774 seconds
#
# Revision: 0
# Processed by: cddbd v1.5.1PL0 Copyright (c) Steve Scherf et al.
# Submitted via: CDex 1.51
#
DISCID=21030403
DTITLE=岡北有由 - 咲イテ
DYEAR=1900
DGENRE=
TTITLE0=咲イテ
TTITLE1=風がふいていた
TTITLE2=not clear, not dark
EXTD=
EXTT0=
EXTT1=
EXTT2=
PLAYORDER=
